<?xml version="1.0" standalone="no"?>
<!DOCTYPE svg PUBLIC "-//W3C//DTD SVG 20010904//EN"
 "http://www.w3.org/TR/2001/REC-SVG-20010904/DTD/svg10.dtd">
<svg version="1.0" xmlns="http://www.w3.org/2000/svg"
 width="800.000000pt" height="250.000000pt" viewBox="0 0 800.000000 250.000000"
 preserveAspectRatio="xMidYMid meet">

<g transform="translate(0.000000,250.000000) scale(0.100000,-0.100000)"
fill="#000000" stroke="none">
<path d="M2270 1675 l0 -125 55 0 54 0 3 73 3 72 198 3 c128 1 197 -1 197 -8
0 -5 -19 -36 -43 -67 -24 -32 -139 -196 -255 -365 -201 -290 -212 -309 -212
-352 l0 -46 345 0 345 0 0 130 0 130 -55 0 -55 0 0 -80 0 -80 -210 0 c-115 0
-210 4 -210 9 0 4 15 28 33 52 18 24 133 189 255 366 210 304 222 324 222 367
l0 46 -335 0 -335 0 0 -125z"/>
<path d="M6100 1750 l0 -50 55 0 55 0 0 -365 0 -365 -55 0 -55 0 0 -55 0 -55
186 0 185 0 -3 53 -3 52 -62 3 -63 3 0 129 0 130 89 0 c108 0 101 7 216 -199
55 -99 88 -147 107 -157 15 -8 56 -14 93 -14 l65 0 0 55 0 55 -33 0 c-42 0
-47 6 -132 155 -37 66 -75 125 -83 132 -12 10 -8 14 24 28 49 20 99 68 127
120 18 32 22 57 22 130 0 105 -19 152 -82 204 -66 55 -108 61 -395 61 l-258 0
0 -50z m511 -73 c123 -52 129 -241 9 -311 -30 -18 -52 -21 -155 -21 l-120 0
-3 165 c-1 90 0 171 3 179 5 11 26 13 118 8 65 -3 128 -11 148 -20z"/>
<path d="M3354 1536 c-102 -25 -194 -100 -238 -195 -31 -68 -30 -215 3 -288
32 -71 120 -154 194 -181 79 -30 195 -30 274 0 74 27 162 110 194 181 33 73
34 220 3 288 -73 157 -252 238 -430 195z m191 -120 c90 -42 135 -114 135 -219
0 -157 -135 -272 -279 -237 -112 27 -181 118 -181 239 0 179 168 291 325 217z"/>
<path d="M4180 1535 c-66 -19 -149 -71 -184 -118 -71 -93 -92 -231 -53 -345
25 -70 102 -153 175 -189 52 -26 67 -28 167 -28 96 0 116 3 160 25 71 35 149
117 174 185 26 69 28 190 5 259 -23 68 -108 156 -182 190 -77 34 -184 42 -262
21z m173 -106 c46 -13 112 -69 137 -119 48 -95 30 -210 -45 -285 -150 -151
-397 -40 -395 176 2 161 148 271 303 228z"/>
<path d="M5147 1536 c-51 -19 -103 -60 -135 -109 l-27 -41 -5 62 c-3 41 -10
66 -20 72 -8 5 -57 10 -107 10 l-93 0 0 -50 0 -50 50 0 c43 0 50 -3 55 -22 3
-13 4 -120 3 -238 l-3 -215 -52 -3 -53 -3 0 -45 0 -44 165 0 165 0 0 44 0 45
-47 3 -48 3 -3 95 c-3 108 11 217 34 263 38 75 100 119 169 119 107 0 117 -29
123 -334 l4 -238 109 0 109 0 0 44 0 45 -47 3 -48 3 1 145 c1 157 12 204 60
267 46 60 124 82 191 54 56 -23 63 -59 63 -326 l0 -235 115 0 115 0 0 45 0 45
-55 0 -55 0 0 203 c0 158 -4 216 -16 258 -21 69 -66 113 -134 129 -100 24
-192 -9 -268 -95 l-40 -46 -11 34 c-31 94 -153 142 -264 103z"/>
<path d="M7010 1485 l0 -55 55 0 55 0 76 -114 75 -113 -82 -127 -81 -126 -49
0 -49 0 0 -45 0 -45 89 0 89 0 78 130 c43 72 81 127 84 123 3 -5 39 -63 79
-130 l72 -123 89 0 90 0 0 45 0 45 -45 0 -45 0 -81 122 c-45 67 -82 127 -82
133 0 6 33 59 73 118 l74 107 49 0 48 0 -3 53 -3 52 -85 3 -85 3 -75 -122
c-52 -85 -77 -117 -82 -108 -5 8 -36 61 -71 119 l-63 105 -97 3 -97 3 0 -56z"/>
</g>
</svg>
